<svg width="344" height="66" viewBox="0 0 344 66" fill="none" xmlns="http://www.w3.org/2000/svg">
<path d="M100.288 32.75V34.2344C100.288 36.2754 100.022 38.1061 99.4902 39.7266C98.9583 41.347 98.1976 42.7262 97.208 43.8643C96.2308 45.0023 95.0557 45.8743 93.6826 46.4805C92.3096 47.0742 90.7881 47.3711 89.1182 47.3711C87.4606 47.3711 85.9453 47.0742 84.5723 46.4805C83.2116 45.8743 82.0303 45.0023 81.0283 43.8643C80.0264 42.7262 79.2471 41.347 78.6904 39.7266C78.1462 38.1061 77.874 36.2754 77.874 34.2344V32.75C77.874 30.709 78.1462 28.8844 78.6904 27.2764C79.2347 25.6559 80.0016 24.2767 80.9912 23.1387C81.9932 21.9883 83.1745 21.1162 84.5352 20.5225C85.9082 19.9163 87.4235 19.6133 89.0811 19.6133C90.751 19.6133 92.2725 19.9163 93.6455 20.5225C95.0186 21.1162 96.1999 21.9883 97.1895 23.1387C98.179 24.2767 98.9398 25.6559 99.4717 27.2764C100.016 28.8844 100.288 30.709 100.288 32.75ZM95.6309 34.2344V32.7129C95.6309 31.2038 95.4824 29.874 95.1855 28.7236C94.901 27.5609 94.4743 26.5898 93.9053 25.8105C93.3486 25.0189 92.6621 24.4251 91.8457 24.0293C91.0293 23.6211 90.1077 23.417 89.0811 23.417C88.0544 23.417 87.139 23.6211 86.335 24.0293C85.5309 24.4251 84.8444 25.0189 84.2754 25.8105C83.7188 26.5898 83.292 27.5609 82.9951 28.7236C82.6982 29.874 82.5498 31.2038 82.5498 32.7129V34.2344C82.5498 35.7435 82.6982 37.0794 82.9951 38.2422C83.292 39.4049 83.7249 40.3883 84.2939 41.1924C84.8753 41.984 85.568 42.584 86.3721 42.9922C87.1761 43.388 88.0915 43.5859 89.1182 43.5859C90.1572 43.5859 91.0788 43.388 91.8828 42.9922C92.6868 42.584 93.3672 41.984 93.9238 41.1924C94.4805 40.3883 94.901 39.4049 95.1855 38.2422C95.4824 37.0794 95.6309 35.7435 95.6309 34.2344ZM108.935 31.21V47H104.463V26.9238H108.675L108.935 31.21ZM108.137 36.2197L106.689 36.2012C106.702 34.7786 106.9 33.4736 107.283 32.2861C107.679 31.0986 108.223 30.0781 108.916 29.2246C109.621 28.3711 110.462 27.7155 111.439 27.2578C112.417 26.7878 113.505 26.5527 114.705 26.5527C115.67 26.5527 116.542 26.6888 117.321 26.9609C118.113 27.2207 118.787 27.6475 119.344 28.2412C119.913 28.835 120.346 29.6081 120.643 30.5605C120.939 31.5007 121.088 32.6572 121.088 34.0303V47H116.598V34.0117C116.598 33.0469 116.455 32.2861 116.171 31.7295C115.899 31.1605 115.497 30.7585 114.965 30.5234C114.445 30.276 113.796 30.1523 113.017 30.1523C112.25 30.1523 111.563 30.3132 110.957 30.6348C110.351 30.9564 109.838 31.3955 109.417 31.9521C109.009 32.5088 108.693 33.152 108.471 33.8818C108.248 34.6117 108.137 35.391 108.137 36.2197ZM130.439 18.5V47H125.949V18.5H130.439ZM141.164 44.8105L146.619 26.9238H151.406L143.354 50.0615C143.168 50.5563 142.927 51.0944 142.63 51.6758C142.333 52.2572 141.943 52.8076 141.461 53.3271C140.991 53.859 140.403 54.2858 139.698 54.6074C138.993 54.9414 138.14 55.1084 137.138 55.1084C136.742 55.1084 136.358 55.0713 135.987 54.9971C135.629 54.9352 135.288 54.8672 134.967 54.793L134.948 51.3789C135.072 51.3913 135.22 51.4036 135.394 51.416C135.579 51.4284 135.728 51.4346 135.839 51.4346C136.581 51.4346 137.2 51.3418 137.694 51.1562C138.189 50.9831 138.591 50.6986 138.9 50.3027C139.222 49.9069 139.494 49.375 139.717 48.707L141.164 44.8105ZM138.084 26.9238L142.853 41.9531L143.65 46.666L140.552 47.4639L133.26 26.9238H138.084ZM178.088 40.042C178.088 39.4854 178.001 38.9906 177.828 38.5576C177.667 38.1247 177.377 37.7288 176.956 37.3701C176.535 37.0114 175.942 36.665 175.175 36.3311C174.42 35.9847 173.455 35.6322 172.28 35.2734C170.994 34.8776 169.806 34.4385 168.718 33.9561C167.642 33.4613 166.701 32.8923 165.897 32.249C165.093 31.5934 164.469 30.8451 164.023 30.0039C163.578 29.1504 163.355 28.167 163.355 27.0537C163.355 25.9528 163.584 24.9508 164.042 24.0479C164.512 23.1449 165.174 22.3656 166.027 21.71C166.893 21.042 167.914 20.5286 169.089 20.1699C170.264 19.7988 171.563 19.6133 172.985 19.6133C174.989 19.6133 176.715 19.9844 178.162 20.7266C179.622 21.4688 180.741 22.4645 181.521 23.7139C182.312 24.9632 182.708 26.3424 182.708 27.8516H178.088C178.088 26.9609 177.896 26.1755 177.513 25.4951C177.142 24.8024 176.573 24.2581 175.806 23.8623C175.051 23.4665 174.092 23.2686 172.93 23.2686C171.829 23.2686 170.913 23.4355 170.184 23.7695C169.454 24.1035 168.91 24.555 168.551 25.124C168.192 25.693 168.013 26.3363 168.013 27.0537C168.013 27.5609 168.13 28.0247 168.365 28.4453C168.6 28.8535 168.959 29.237 169.441 29.5957C169.924 29.9421 170.53 30.2699 171.26 30.5791C171.99 30.8883 172.849 31.1852 173.839 31.4697C175.336 31.915 176.641 32.4098 177.754 32.9541C178.867 33.486 179.795 34.0921 180.537 34.7725C181.279 35.4528 181.836 36.2259 182.207 37.0918C182.578 37.9453 182.764 38.9163 182.764 40.0049C182.764 41.1429 182.535 42.1696 182.077 43.085C181.619 43.988 180.964 44.7611 180.11 45.4043C179.269 46.0352 178.255 46.5238 177.067 46.8701C175.892 47.2041 174.581 47.3711 173.134 47.3711C171.835 47.3711 170.555 47.1979 169.293 46.8516C168.044 46.5052 166.906 45.9795 165.879 45.2744C164.852 44.557 164.036 43.6663 163.43 42.6025C162.824 41.5264 162.521 40.2708 162.521 38.8359H167.178C167.178 39.7142 167.326 40.4626 167.623 41.0811C167.932 41.6995 168.359 42.2067 168.903 42.6025C169.448 42.986 170.078 43.2705 170.796 43.4561C171.526 43.6416 172.305 43.7344 173.134 43.7344C174.222 43.7344 175.132 43.5798 175.861 43.2705C176.604 42.9613 177.16 42.5283 177.531 41.9717C177.902 41.415 178.088 40.7718 178.088 40.042ZM191.225 26.9238V47H186.734V26.9238H191.225ZM186.438 21.6543C186.438 20.974 186.66 20.4111 187.105 19.9658C187.563 19.5081 188.194 19.2793 188.998 19.2793C189.79 19.2793 190.414 19.5081 190.872 19.9658C191.33 20.4111 191.559 20.974 191.559 21.6543C191.559 22.3223 191.33 22.8789 190.872 23.3242C190.414 23.7695 189.79 23.9922 188.998 23.9922C188.194 23.9922 187.563 23.7695 187.105 23.3242C186.66 22.8789 186.438 22.3223 186.438 21.6543ZM208.981 26.9238H213.045V46.4434C213.045 48.2493 212.661 49.7832 211.895 51.0449C211.128 52.3066 210.058 53.2653 208.685 53.9209C207.312 54.5889 205.722 54.9229 203.916 54.9229C203.149 54.9229 202.296 54.8115 201.355 54.5889C200.428 54.3662 199.525 54.0075 198.646 53.5127C197.781 53.0303 197.057 52.3932 196.476 51.6016L198.572 48.9668C199.29 49.8203 200.081 50.445 200.947 50.8408C201.813 51.2367 202.722 51.4346 203.675 51.4346C204.701 51.4346 205.574 51.2428 206.291 50.8594C207.021 50.4883 207.584 49.9378 207.979 49.208C208.375 48.4782 208.573 47.5876 208.573 46.5361V31.4697L208.981 26.9238ZM195.344 37.1846V36.7949C195.344 35.2734 195.529 33.888 195.9 32.6387C196.271 31.377 196.803 30.2946 197.496 29.3916C198.189 28.4762 199.03 27.7773 200.02 27.2949C201.009 26.8001 202.129 26.5527 203.378 26.5527C204.677 26.5527 205.784 26.7878 206.699 27.2578C207.627 27.7279 208.4 28.402 209.019 29.2803C209.637 30.1462 210.119 31.1852 210.466 32.3975C210.825 33.5973 211.09 34.9333 211.264 36.4053V37.6484C211.103 39.0833 210.831 40.3945 210.447 41.582C210.064 42.7695 209.557 43.7962 208.926 44.6621C208.295 45.528 207.516 46.196 206.588 46.666C205.673 47.1361 204.59 47.3711 203.341 47.3711C202.116 47.3711 201.009 47.1175 200.02 46.6104C199.042 46.1032 198.201 45.3919 197.496 44.4766C196.803 43.5612 196.271 42.485 195.9 41.248C195.529 39.9987 195.344 38.6442 195.344 37.1846ZM199.815 36.7949V37.1846C199.815 38.0999 199.902 38.9535 200.075 39.7451C200.261 40.5368 200.539 41.2357 200.91 41.8418C201.294 42.4355 201.776 42.9056 202.357 43.252C202.951 43.5859 203.65 43.7529 204.454 43.7529C205.506 43.7529 206.365 43.5303 207.033 43.085C207.714 42.6396 208.233 42.0397 208.592 41.2852C208.963 40.5182 209.223 39.6647 209.371 38.7246V35.3662C209.297 34.6364 209.142 33.9561 208.907 33.3252C208.685 32.6943 208.382 32.1439 207.998 31.6738C207.615 31.1914 207.132 30.8203 206.551 30.5605C205.969 30.2884 205.283 30.1523 204.491 30.1523C203.687 30.1523 202.988 30.3255 202.395 30.6719C201.801 31.0182 201.312 31.4945 200.929 32.1006C200.558 32.7067 200.279 33.4118 200.094 34.2158C199.908 35.0199 199.815 35.8796 199.815 36.7949ZM222.118 31.21V47H217.646V26.9238H221.858L222.118 31.21ZM221.32 36.2197L219.873 36.2012C219.885 34.7786 220.083 33.4736 220.467 32.2861C220.863 31.0986 221.407 30.0781 222.1 29.2246C222.805 28.3711 223.646 27.7155 224.623 27.2578C225.6 26.7878 226.689 26.5527 227.889 26.5527C228.854 26.5527 229.726 26.6888 230.505 26.9609C231.297 27.2207 231.971 27.6475 232.527 28.2412C233.096 28.835 233.529 29.6081 233.826 30.5605C234.123 31.5007 234.271 32.6572 234.271 34.0303V47H229.781V34.0117C229.781 33.0469 229.639 32.2861 229.354 31.7295C229.082 31.1605 228.68 30.7585 228.148 30.5234C227.629 30.276 226.979 30.1523 226.2 30.1523C225.433 30.1523 224.747 30.3132 224.141 30.6348C223.535 30.9564 223.021 31.3955 222.601 31.9521C222.192 32.5088 221.877 33.152 221.654 33.8818C221.432 34.6117 221.32 35.391 221.32 36.2197ZM250.154 42.9736V33.3994C250.154 32.682 250.024 32.0635 249.765 31.5439C249.505 31.0244 249.109 30.6224 248.577 30.3379C248.058 30.0534 247.402 29.9111 246.61 29.9111C245.881 29.9111 245.25 30.0348 244.718 30.2822C244.186 30.5296 243.771 30.8636 243.475 31.2842C243.178 31.7048 243.029 32.181 243.029 32.7129H238.576C238.576 31.9212 238.768 31.1543 239.151 30.4121C239.535 29.6699 240.091 29.0081 240.821 28.4268C241.551 27.8454 242.423 27.3877 243.438 27.0537C244.452 26.7197 245.59 26.5527 246.852 26.5527C248.361 26.5527 249.697 26.8063 250.859 27.3135C252.035 27.8206 252.956 28.5876 253.624 29.6143C254.304 30.6286 254.645 31.9027 254.645 33.4365V42.3613C254.645 43.2767 254.706 44.0993 254.83 44.8291C254.966 45.5465 255.158 46.1712 255.405 46.7031V47H250.822C250.612 46.5176 250.445 45.9053 250.321 45.1631C250.21 44.4085 250.154 43.6787 250.154 42.9736ZM250.804 34.791L250.841 37.5557H247.631C246.802 37.5557 246.072 37.6361 245.441 37.7969C244.811 37.9453 244.285 38.168 243.864 38.4648C243.444 38.7617 243.128 39.1204 242.918 39.541C242.708 39.9616 242.603 40.4378 242.603 40.9697C242.603 41.5016 242.726 41.9902 242.974 42.4355C243.221 42.8685 243.58 43.2087 244.05 43.4561C244.532 43.7035 245.114 43.8271 245.794 43.8271C246.709 43.8271 247.507 43.6416 248.188 43.2705C248.88 42.887 249.424 42.4232 249.82 41.8789C250.216 41.3223 250.426 40.7965 250.451 40.3018L251.898 42.2871C251.75 42.7943 251.496 43.3385 251.138 43.9199C250.779 44.5013 250.309 45.0579 249.728 45.5898C249.159 46.1094 248.472 46.5361 247.668 46.8701C246.876 47.2041 245.961 47.3711 244.922 47.3711C243.611 47.3711 242.442 47.1113 241.415 46.5918C240.388 46.0599 239.584 45.3486 239.003 44.458C238.422 43.555 238.131 42.5345 238.131 41.3965C238.131 40.3327 238.329 39.3926 238.725 38.5762C239.133 37.7474 239.727 37.0547 240.506 36.498C241.298 35.9414 242.262 35.5208 243.4 35.2363C244.538 34.9395 245.837 34.791 247.297 34.791H250.804ZM268.523 26.9238V30.1895H257.205V26.9238H268.523ZM260.471 22.0068H264.942V41.4521C264.942 42.0706 265.029 42.5469 265.202 42.8809C265.388 43.2025 265.641 43.4189 265.963 43.5303C266.285 43.6416 266.662 43.6973 267.095 43.6973C267.404 43.6973 267.701 43.6787 267.985 43.6416C268.27 43.6045 268.499 43.5674 268.672 43.5303L268.69 46.9443C268.319 47.0557 267.886 47.1546 267.392 47.2412C266.909 47.3278 266.353 47.3711 265.722 47.3711C264.695 47.3711 263.786 47.1917 262.994 46.833C262.202 46.4619 261.584 45.862 261.139 45.0332C260.693 44.2044 260.471 43.1035 260.471 41.7305V22.0068ZM284.054 42.2686V26.9238H288.544V47H284.313L284.054 42.2686ZM284.685 38.0938L286.188 38.0566C286.188 39.4049 286.039 40.6481 285.742 41.7861C285.445 42.9118 284.988 43.8952 284.369 44.7363C283.751 45.5651 282.959 46.2145 281.994 46.6846C281.029 47.1423 279.873 47.3711 278.524 47.3711C277.547 47.3711 276.65 47.2288 275.834 46.9443C275.018 46.6598 274.312 46.2207 273.719 45.627C273.137 45.0332 272.686 44.2601 272.364 43.3076C272.043 42.3551 271.882 41.2171 271.882 39.8936V26.9238H276.354V39.9307C276.354 40.6605 276.44 41.2728 276.613 41.7676C276.786 42.25 277.021 42.6396 277.318 42.9365C277.615 43.2334 277.962 43.4437 278.357 43.5674C278.753 43.6911 279.174 43.7529 279.619 43.7529C280.893 43.7529 281.895 43.5055 282.625 43.0107C283.367 42.5036 283.893 41.8232 284.202 40.9697C284.524 40.1162 284.685 39.1576 284.685 38.0938ZM297.617 30.7461V47H293.146V26.9238H297.413L297.617 30.7461ZM303.759 26.7939L303.722 30.9502C303.45 30.9007 303.153 30.8636 302.831 30.8389C302.522 30.8141 302.213 30.8018 301.903 30.8018C301.136 30.8018 300.462 30.9131 299.881 31.1357C299.299 31.346 298.811 31.6553 298.415 32.0635C298.032 32.4593 297.735 32.9417 297.524 33.5107C297.314 34.0798 297.19 34.7168 297.153 35.4219L296.133 35.4961C296.133 34.2344 296.257 33.0654 296.504 31.9893C296.751 30.9131 297.122 29.9668 297.617 29.1504C298.124 28.334 298.755 27.6969 299.51 27.2393C300.277 26.7816 301.161 26.5527 302.163 26.5527C302.435 26.5527 302.726 26.5775 303.035 26.627C303.357 26.6764 303.598 26.7321 303.759 26.7939ZM315.04 47.3711C313.556 47.3711 312.214 47.1299 311.014 46.6475C309.826 46.1527 308.812 45.4661 307.971 44.5879C307.142 43.7096 306.505 42.6768 306.06 41.4893C305.614 40.3018 305.392 39.0215 305.392 37.6484V36.9062C305.392 35.3353 305.62 33.9128 306.078 32.6387C306.536 31.3646 307.173 30.276 307.989 29.373C308.806 28.4577 309.771 27.7588 310.884 27.2764C311.997 26.7939 313.203 26.5527 314.502 26.5527C315.937 26.5527 317.192 26.7939 318.269 27.2764C319.345 27.7588 320.235 28.4391 320.94 29.3174C321.658 30.1833 322.19 31.2161 322.536 32.416C322.895 33.6159 323.074 34.9395 323.074 36.3867V38.2979H307.562V35.0879H318.658V34.7354C318.633 33.9313 318.473 33.1768 318.176 32.4717C317.891 31.7666 317.452 31.1976 316.858 30.7646C316.265 30.3317 315.473 30.1152 314.483 30.1152C313.741 30.1152 313.079 30.276 312.498 30.5977C311.929 30.9069 311.453 31.3584 311.069 31.9521C310.686 32.5459 310.389 33.2633 310.179 34.1045C309.981 34.9333 309.882 35.8672 309.882 36.9062V37.6484C309.882 38.5267 309.999 39.3431 310.234 40.0977C310.482 40.8398 310.84 41.4893 311.311 42.0459C311.781 42.6025 312.35 43.0417 313.018 43.3633C313.686 43.6725 314.446 43.8271 315.3 43.8271C316.376 43.8271 317.335 43.6107 318.176 43.1777C319.017 42.7448 319.747 42.1325 320.365 41.3408L322.722 43.623C322.289 44.2539 321.726 44.86 321.033 45.4414C320.34 46.0104 319.493 46.4743 318.491 46.833C317.502 47.1917 316.351 47.3711 315.04 47.3711ZM337.825 41.5635C337.825 41.1182 337.714 40.7161 337.491 40.3574C337.269 39.9863 336.842 39.6523 336.211 39.3555C335.592 39.0586 334.677 38.7865 333.465 38.5391C332.401 38.304 331.424 38.0257 330.533 37.7041C329.655 37.3701 328.9 36.9681 328.27 36.498C327.639 36.028 327.15 35.4714 326.804 34.8281C326.457 34.1849 326.284 33.4427 326.284 32.6016C326.284 31.7852 326.464 31.012 326.822 30.2822C327.181 29.5524 327.694 28.9092 328.362 28.3525C329.03 27.7959 329.84 27.3568 330.793 27.0352C331.758 26.7135 332.834 26.5527 334.021 26.5527C335.704 26.5527 337.145 26.8372 338.345 27.4062C339.557 27.9629 340.485 28.7236 341.128 29.6885C341.771 30.641 342.093 31.7171 342.093 32.917H337.621C337.621 32.3851 337.485 31.8903 337.213 31.4326C336.953 30.9626 336.557 30.5853 336.025 30.3008C335.493 30.0039 334.826 29.8555 334.021 29.8555C333.255 29.8555 332.618 29.9792 332.11 30.2266C331.616 30.4616 331.244 30.7708 330.997 31.1543C330.762 31.5378 330.645 31.9583 330.645 32.416C330.645 32.75 330.706 33.0531 330.83 33.3252C330.966 33.585 331.189 33.8262 331.498 34.0488C331.807 34.2591 332.228 34.457 332.76 34.6426C333.304 34.8281 333.984 35.0075 334.801 35.1807C336.335 35.5023 337.652 35.9167 338.753 36.4238C339.866 36.9186 340.72 37.5618 341.313 38.3535C341.907 39.1328 342.204 40.1224 342.204 41.3223C342.204 42.2129 342.012 43.0293 341.629 43.7715C341.258 44.5013 340.714 45.1383 339.996 45.6826C339.279 46.2145 338.419 46.6289 337.417 46.9258C336.427 47.2227 335.314 47.3711 334.077 47.3711C332.259 47.3711 330.719 47.0495 329.457 46.4062C328.195 45.7507 327.237 44.9157 326.581 43.9014C325.938 42.8747 325.616 41.8109 325.616 40.71H329.939C329.989 41.5387 330.218 42.2005 330.626 42.6953C331.047 43.1777 331.566 43.5303 332.185 43.7529C332.815 43.9632 333.465 44.0684 334.133 44.0684C334.937 44.0684 335.611 43.9632 336.155 43.7529C336.7 43.5303 337.114 43.2334 337.398 42.8623C337.683 42.4788 337.825 42.0459 337.825 41.5635Z" fill="black"/>
<g filter="url(#filter0_d_52_115)">
<rect x="4" y="4" width="57.1488" height="57.1488" rx="4" fill="url(#paint0_linear_52_115)"/>
<rect x="4.25" y="4.25" width="56.6488" height="56.6488" rx="3.75" stroke="#ECECEC" stroke-width="0.5"/>
</g>
<path d="M48.809 21.0202L34.3861 12.6128C33.2231 11.935 31.7821 11.9227 30.608 12.5832L16.0503 20.7638C14.8762 21.4232 14.1458 22.6543 14.1347 23.9927L14.0012 40.5806C13.9901 41.919 14.7007 43.1613 15.8637 43.8403L30.2879 52.2501C31.4521 52.9279 32.8919 52.9403 34.066 52.2797L48.6236 44.0991C49.7977 43.4398 50.5281 42.2086 50.5392 40.8703L50.6715 24.2811C50.6826 22.9427 49.972 21.7004 48.809 21.0226V21.0202ZM50.0276 28.2087L47.117 42.9518C46.8822 44.141 46.0257 45.1158 44.8689 45.509L30.535 50.3806C29.3782 50.7737 28.0991 50.5248 27.1771 49.7287L15.7537 39.8572C14.8317 39.0611 14.4091 37.8373 14.6439 36.6481L17.5557 21.9063C17.7905 20.717 18.647 19.7422 19.8038 19.349L34.1377 14.4774C35.2945 14.0843 36.5736 14.3332 37.4956 15.1293L48.9177 24.9983C49.8397 25.7944 50.2624 27.0182 50.0276 28.2075V28.2087Z" fill="black"/>
<path d="M47.3622 28.6266L39.2839 18.5238C38.6317 17.7089 37.597 17.3052 36.5685 17.4639L23.8143 19.4375C22.7858 19.5962 21.9195 20.2949 21.542 21.2686L16.8661 33.3437C16.4886 34.3173 16.6581 35.4197 17.3104 36.2347L25.3899 46.3387C26.0421 47.1536 27.0768 47.5586 28.1053 47.3986L40.8595 45.4263C41.888 45.2676 42.7543 44.5689 43.1318 43.5952L47.8065 31.5176C48.184 30.544 48.0144 29.4403 47.3622 28.6266ZM45.4166 35.1785L38.8099 44.1702C38.2765 44.8951 37.399 45.2801 36.5066 45.1788L25.448 43.9302C24.5557 43.829 23.7846 43.259 23.4257 42.4328L18.9738 32.1913C18.6149 31.3651 18.7213 30.409 19.2548 29.684L25.8614 20.6936C26.3949 19.9687 27.2724 19.5837 28.1647 19.685L39.2233 20.9349C40.1156 21.0361 40.8855 21.606 41.2456 22.4322L45.6975 32.6713C46.0564 33.4974 45.95 34.4536 45.4166 35.1785Z" fill="black"/>
<defs>
<filter id="filter0_d_52_115" x="0" y="0" width="65.1488" height="65.1488" filterUnits="userSpaceOnUse" color-interpolation-filters="sRGB">
<feFlood flood-opacity="0" result="BackgroundImageFix"/>
<feColorMatrix in="SourceAlpha" type="matrix" values="0 0 0 0 0 0 0 0 0 0 0 0 0 0 0 0 0 0 127 0" result="hardAlpha"/>
<feOffset/>
<feGaussianBlur stdDeviation="2"/>
<feComposite in2="hardAlpha" operator="out"/>
<feColorMatrix type="matrix" values="0 0 0 0 0 0 0 0 0 0 0 0 0 0 0 0 0 0 0.08 0"/>
<feBlend mode="normal" in2="BackgroundImageFix" result="effect1_dropShadow_52_115"/>
<feBlend mode="normal" in="SourceGraphic" in2="effect1_dropShadow_52_115" result="shape"/>
</filter>
<linearGradient id="paint0_linear_52_115" x1="32.5744" y1="4" x2="32.5744" y2="61.1488" gradientUnits="userSpaceOnUse">
<stop stop-color="white"/>
<stop offset="1" stop-color="#EFEFEF"/>
</linearGradient>
</defs>
</svg>
